mtllib ./Bush_Small_02 1_2_0.mtl
g Bush_Small_02 1
v 0.493574 0.6295592 2.48339
v 0.4570845 0.02132815 0.4041666
v -1.030654 0 -0.04386267
v 2.020623 1.177991 -1.279964
v 1.109275 2.848833 1.307478
v 1.5278 2.982632 -0.9871257
v 0.5210103 0.5822603 -1.956325
v -1.030654 0 -0.04386267
v 0.4570845 0.02132815 0.4041666
v 0.5210103 0.5822603 -1.956325
v -1.679524 1.735509 -0.3677234
v -1.030654 0 -0.04386267
v 1.99818 1.199745 1.056121
v 0.4570845 0.02132815 0.4041666
v 0.493574 0.6295592 2.48339
v -1.145294 1.962791 1.024971
v -0.6110646 2.190073 2.417665
v -1.030654 0 -0.04386267
v -1.679524 1.735509 -0.3677234
v 1.5278 2.982632 -0.9871257
v 0.1693912 2.438468 -1.946192
v 2.020623 1.177991 -1.279964
v 2.020623 1.177991 -1.279964
v 0.4570845 0.02132815 0.4041666
v 1.99818 1.199745 1.056121
v -1.030654 0 -0.04386267
v -0.6110646 2.190073 2.417665
v 0.493574 0.6295592 2.48339
v 1.109275 2.848833 1.307478
v 1.99818 1.199745 1.056121
v 0.493574 0.6295592 2.48339
v 1.5278 2.982632 -0.9871257
v 1.109275 2.848833 1.307478
v -0.453709 3.063012 -0.07292931
v 0.1693912 2.438468 -1.946192
v -1.679524 1.735509 -0.3677234
v 0.5210103 0.5822603 -1.956325
v 2.020623 1.177991 -1.279964
v 1.99818 1.199745 1.056121
v 1.109275 2.848833 1.307478
v 1.109275 2.848833 1.307478
v 0.493574 0.6295592 2.48339
v -0.6110646 2.190073 2.417665
v -0.453709 3.063012 -0.07292931
v -0.6110646 2.190073 2.417665
v -1.145294 1.962791 1.024971
v -1.679524 1.735509 -0.3677234
v 0.1693912 2.438468 -1.946192
v -0.453709 3.063012 -0.07292931
v -1.679524 1.735509 -0.3677234
v 1.109275 2.848833 1.307478
v -0.6110646 2.190073 2.417665
v -0.453709 3.063012 -0.07292931
v 2.020623 1.177991 -1.279964
v 0.5210103 0.5822603 -1.956325
v 0.4570845 0.02132815 0.4041666
v 0.1693912 2.438468 -1.946192
v 0.5210103 0.5822603 -1.956325
v 2.020623 1.177991 -1.279964
v 1.5278 2.982632 -0.9871257
v -0.453709 3.063012 -0.07292931
v 0.1693912 2.438468 -1.946192

vn -0.07096326 -0.9570216 0.2812009
vn -0.07096326 -0.9570216 0.2812009
vn -0.07096326 -0.9570216 0.2812009
vn 0.9292116 0.3565845 0.09702206
vn 0.9292116 0.3565845 0.09702206
vn 0.9548624 0.2303195 0.1875925
vn 0.0826546 -0.9700795 -0.2282851
vn 0.0826546 -0.9700795 -0.2282851
vn 0.0826546 -0.9700795 -0.2282851
vn -0.648425 -0.243874 -0.721159
vn -0.648425 -0.243874 -0.721159
vn -0.6633824 -0.3694532 -0.6507136
vn 0.5696751 -0.8127078 0.1223781
vn 0.5327381 -0.8461333 0.01576631
vn 0.527918 -0.8175864 0.2299021
vn -0.8865792 -0.2600893 0.3825323
vn -0.8029719 -0.3707096 0.4667019
vn -0.8029719 -0.3707096 0.4667019
vn -0.8865792 -0.2600893 0.3825323
vn 0.4821264 0.2670609 -0.8344056
vn 0.4359779 0.1735663 -0.8830618
vn 0.4359779 0.1735663 -0.8830618
vn 0.525748 -0.8455804 -0.09264378
vn 0.5327381 -0.8461333 0.01576631
vn 0.5696751 -0.8127078 0.1223781
vn -0.8029719 -0.3707096 0.4667019
vn -0.8029719 -0.3707096 0.4667019
vn -0.6982371 -0.471576 0.5385917
vn 0.5260279 0.2796378 0.8031794
vn 0.6251007 0.2229308 0.7480314
vn 0.5260279 0.2796378 0.8031794
vn 0.07328001 0.9947544 0.07137034
vn -0.04038698 0.9794315 0.1976938
vn -0.04038698 0.9794315 0.1976938
vn -0.619879 -0.1131841 -0.7764916
vn -0.648425 -0.243874 -0.721159
vn -0.648425 -0.243874 -0.721159
vn 0.9292116 0.3565845 0.09702206
vn 0.880513 0.4740049 0.00404515
vn 0.9292116 0.3565845 0.09702206
vn 0.5260279 0.2796378 0.8031794
vn 0.5260279 0.2796378 0.8031794
vn 0.4185006 0.3318505 0.8454185
vn -0.742303 0.6456068 0.179383
vn -0.742303 0.6456068 0.179383
vn -0.742303 0.6456068 0.179383
vn -0.742303 0.6456068 0.179383
vn -0.6156459 0.6630522 -0.4258426
vn -0.6156459 0.6630522 -0.4258426
vn -0.6156459 0.6630522 -0.4258426
vn -0.04038698 0.9794315 0.1976938
vn -0.1528782 0.9355947 0.3182619
vn -0.04038698 0.9794315 0.1976938
vn 0.525748 -0.8455804 -0.09264378
vn 0.4373174 -0.8775347 -0.1966886
vn 0.5327381 -0.8461333 0.01576631
vn 0.4359779 0.1735663 -0.8830618
vn 0.3840577 0.07777396 -0.9200277
vn 0.4359779 0.1735663 -0.8830618
vn -0.1241777 0.9281941 -0.3507645
vn -0.1241777 0.9281941 -0.3507645
vn -0.1241777 0.9281941 -0.3507645

vt 3.367298 7.351402
vt 1.680465 0.8499854
vt -3.131183 0.6220076
vt 5.101004 2.314129
vt -3.314255 7.636851
vt 3.915718 8.063087
vt 0.5459797 6.503377
vt 3.050474 -0.9311446
vt -1.758868 -0.6588187
vt -5.460484 2.820306
vt 2.832118 6.667581
vt 2.140275 0.877866
vt -0.5284671 7.85354
vt -0.5829661 1.509215
vt -6.447348 4.78379
vt 1.510878 7.050525
vt 6.131085 7.780212
vt -1.390615 0.7489906
vt -3.109328 6.320837
vt -2.569889 7.569949
vt 2.563726 5.819457
vt -3.438531 1.764702
vt 4.104082 7.127527
vt -1.221597 1.190841
vt -3.137583 7.239183
vt -2.059094 1.153855
vt 4.777448 8.852929
vt 7.030287 3.367034
vt 0.03964645 7.424221
vt 2.653801 2.180064
vt -3.76249 0.3668532
vt 5.496681 -0.3054378
vt -0.504362 -4.360271
vt -0.8193707 2.130515
vt -4.174429 8.007276
vt 3.35778 5.814006
vt -5.045893 2.215806
vt 3.996632 0.2550048
vt -3.245489 0.3315935
vt -4.037348 6.137447
vt 1.283672 6.619238
vt -2.044113 -0.6738076
vt -5.022674 4.454399
vt -0.5501369 6.402966
vt 6.840113 2.859396
vt 2.254535 1.936778
vt -2.331044 1.014161
vt -5.260587 3.669336
vt 0.6141843 6.255713
vt 2.024333 0.75823
vt 4.854683 1.092972
vt 1.53764 -4.690948
vt -1.365709 2.973466
vt 1.049364 8.192447
vt 4.868446 4.341105
vt -1.723882 0.7147322
vt 1.839552 7.087623
vt 0.845756 1.315886
vt -4.25198 3.168266
vt -5.485896 2.230031
vt 1.250418 2.899693
vt -2.508438 -2.303507

usemtl M_0077_DarkGreen
usemap M_0077_DarkGreen
f 2/2/2 1/1/1 3/3/3
f 5/5/5 4/4/4 6/6/6
f 8/8/8 7/7/7 9/9/9
f 11/11/11 10/10/10 12/12/12
f 14/14/14 13/13/13 15/15/15
f 17/17/17 16/16/16 18/18/18
f 19/19/19 18/18/18 16/16/16
f 21/21/21 20/20/20 22/22/22
f 24/24/24 23/23/23 25/25/25
f 27/27/27 26/26/26 28/28/28
f 30/30/30 29/29/29 31/31/31
f 33/33/33 32/32/32 34/34/34
f 36/36/36 35/35/35 37/37/37
f 39/39/39 38/38/38 40/40/40
f 42/42/42 41/41/41 43/43/43
f 45/45/45 44/44/44 46/46/46
f 47/47/47 46/46/46 44/44/44
f 49/49/49 48/48/48 50/50/50
f 52/52/52 51/51/51 53/53/53
f 55/55/55 54/54/54 56/56/56
f 58/58/58 57/57/57 59/59/59
f 61/61/61 60/60/60 62/62/62
