mtllib ./Fence_Timber_Small_02 1_1_0.mtl
g Fence_Timber_Small_02 1
v 0.6207125 3.298841 -0.2754973
v 0.6207125 3.298841 -0.03455294
v 0.6207125 3.299912 -0.05376784
v 0.6207125 3.299912 -0.2612477
v 0.6207125 3.790275 -0.2612477
v 0.6207125 3.790275 -0.05376784
v 0.6207125 4.59867 -1.833655E-14
v 0.6207125 2.776322 -0.03455294
v 0.6207125 0.62815 -0.05376784
v 0.6207125 0 -1.833655E-14
v 0.6207125 0 -0.334645
v 0.6207125 0.62815 -0.2612477
v 0.6207125 1.118513 -0.2612477
v 0.6207125 2.776322 -0.2754973
v 0.6207125 4.59867 -0.334645
v 0.6207125 1.118513 -0.05376784
v 6.099175 4.59867 0
v 6.099175 0 0
v 5.478462 0 -3.66731E-14
v 5.478462 4.59867 -3.66731E-14
v 0.6207125 0.62815 -0.2612477
v 0.6207125 0.62815 -0.05376784
v 5.478462 0.62815 -0.05376784
v 5.478462 0.62815 -0.2612477
v 5.478462 4.59867 -3.66731E-14
v 5.478462 0 -3.66731E-14
v 5.478462 3.790275 -0.05376784
v 5.478462 4.59867 -0.334645
v 5.478462 1.655622 -0.03455294
v 5.478462 1.115557 -0.03455294
v 5.478462 3.790275 -0.2612477
v 5.478462 3.299912 -0.2612477
v 5.478462 1.655622 -0.2754973
v 5.478462 0 -0.334645
v 5.478462 1.115557 -0.05376784
v 5.478462 1.115557 -0.2612477
v 5.478462 1.115557 -0.2754973
v 5.478462 3.299912 -0.05376784
v 5.478462 1.118513 -0.2612477
v 5.478462 1.118513 -0.05376784
v 5.478462 4.59867 -0.334645
v 5.478462 0 -0.334645
v 6.099175 0 -0.334645
v 6.099175 4.59867 -0.334645
v 5.461208 1.097605 -0.2612477
v 5.400922 1.118513 -0.2612477
v 5.400922 1.118513 -0.05376784
v 5.461208 1.097605 -0.05376784
v 5.461208 1.097605 -0.2754973
v 0.6207125 2.776322 -0.03455294
v 0.6207125 2.776322 -0.2754973
v 5.461208 1.097605 -0.03455294
v 5.478462 1.655622 -0.03455294
v 0.6506147 3.329952 -0.03455294
v 0.6506147 3.329952 -0.05376784
v 0.7372326 3.299912 -0.05376784
v 0.7372326 3.299912 -0.2612477
v 5.478462 1.655622 -0.2754973
v 0.6506147 3.329952 -0.2754973
v 0.6506147 3.329952 -0.2612477
v 0.6506147 3.329952 -0.05376784
v 0.7372326 3.299912 -0.05376784
v 0.6217421 3.299912 -0.05376784
v 5.478462 3.790275 -0.05376784
v 5.478462 3.299912 -0.05376784
v 0.6207125 3.790275 -0.05376784
v 0.6207125 3.299912 -0.05376784
v 6.099175 0 -0.334645
v 6.099175 0 0
v 6.099175 4.59867 0
v 6.099175 4.59867 -0.334645
v 5.478462 3.790275 -0.05376784
v 0.6207125 3.790275 -0.05376784
v 0.6207125 3.790275 -0.2612477
v 5.478462 3.790275 -0.2612477
v 5.481304 1.118513 -0.05376784
v 5.478462 1.118513 -0.05376784
v 5.478462 1.118513 -0.2612477
v 5.481304 1.118513 -0.2612477
v 5.400922 1.118513 -0.2612477
v 5.400922 1.118513 -0.05376784
v 0.6207125 1.118513 -0.2612477
v 0.6207125 1.118513 -0.05376784
v 0.7372326 3.299912 -0.2612477
v 0.6217421 3.299912 -0.2612477
v 0.6217421 3.299912 -0.05376784
v 0.7372326 3.299912 -0.05376784
v 5.478462 3.299912 -0.05376784
v 5.478462 3.299912 -0.2612477
v 0.6207125 3.299912 -0.2612477
v 0.6207125 3.299912 -0.05376784
v 5.478462 1.115557 -0.05376784
v 5.481304 1.118513 -0.05376784
v 5.481304 1.118513 -0.2612477
v 5.478462 1.115557 -0.2612477
v 5.461208 1.097605 -0.2612477
v 5.478462 1.115557 -0.2754973
v 5.461208 1.097605 -0.2754973
v 5.461208 1.097605 -0.05376784
v 5.478462 1.115557 -0.03455294
v 5.461208 1.097605 -0.03455294
v 0 4.59867 -0.334645
v 0 0 -0.334645
v 0.6207125 0 -0.334645
v 0.6207125 4.59867 -0.334645
v 5.478462 1.115557 -0.05376784
v 5.478462 0.62815 -0.05376784
v 5.461208 1.097605 -0.05376784
v 0.6207125 1.118513 -0.05376784
v 0.6207125 0.62815 -0.05376784
v 5.400922 1.118513 -0.05376784
v 5.478462 1.118513 -0.05376784
v 0.6207125 4.59867 -1.833655E-14
v 0.6207125 0 -1.833655E-14
v 0 0 -1.833655E-14
v 0 4.59867 -1.833655E-14
v 0.6207125 1.118513 -0.2612477
v 0.6207125 0.62815 -0.2612477
v 5.478462 0.62815 -0.2612477
v 5.461208 1.097605 -0.2612477
v 5.400922 1.118513 -0.2612477
v 5.478462 1.115557 -0.2612477
v 5.478462 1.118513 -0.2612477
v 6.099175 4.59867 0
v 5.478462 4.59867 -3.66731E-14
v 5.478462 4.59867 -0.334645
v 6.099175 4.59867 -0.334645
v 0.6207125 0 -0.334645
v 0 0 -0.334645
v 0 0 -1.833655E-14
v 0.6207125 0 -1.833655E-14
v 0.6506147 3.329952 -0.2754973
v 0.6506147 3.329952 -0.2612477
v 0.6217421 3.299912 -0.2612477
v 0.6207125 3.298841 -0.2754973
v 0.6217421 3.299912 -0.05376784
v 0.6207125 3.298841 -0.03455294
v 0.6506147 3.329952 -0.05376784
v 0.6506147 3.329952 -0.03455294
v 0.6207125 2.776322 -0.2754973
v 5.461208 1.097605 -0.2754973
v 5.478462 1.115557 -0.2754973
v 5.478462 1.655622 -0.2754973
v 0.6506147 3.329952 -0.2754973
v 0.6207125 3.298841 -0.2754973
v 0.6207125 4.59867 -1.833655E-14
v 0 4.59867 -1.833655E-14
v 0 4.59867 -0.334645
v 0.6207125 4.59867 -0.334645
v 0.6506147 3.329952 -0.2612477
v 0.6217421 3.299912 -0.2612477
v 0.7372326 3.299912 -0.2612477
v 0.6207125 3.790275 -0.2612477
v 0.6207125 3.299912 -0.2612477
v 5.478462 3.299912 -0.2612477
v 5.478462 3.790275 -0.2612477
v 5.478462 1.115557 -0.03455294
v 5.461208 1.097605 -0.03455294
v 0.6207125 2.776322 -0.03455294
v 5.478462 1.655622 -0.03455294
v 0.6506147 3.329952 -0.03455294
v 0.6207125 3.298841 -0.03455294
v 6.099175 0 -0.334645
v 5.478462 0 -0.334645
v 5.478462 0 -3.66731E-14
v 6.099175 0 0
v 0 4.59867 -0.334645
v 0 4.59867 -1.833655E-14
v 0 0 -1.833655E-14
v 0 0 -0.334645

vn 1 0 0
vn 1 0 0
vn 1 0 0
vn 1 0 0
vn 1 0 0
vn 1 0 0
vn 1 0 0
vn 1 0 0
vn 1 0 0
vn 1 0 0
vn 1 0 0
vn 1 0 0
vn 1 0 0
vn 1 0 0
vn 1 0 0
vn 1 0 0
vn 0 0 1
vn 0 0 1
vn 0 0 1
vn 0 0 1
vn 0 -1 0
vn 0 -1 0
vn 0 -1 0
vn 0 -1 0
vn -1 0 0
vn -1 0 0
vn -1 0 0
vn -1 0 0
vn -1 0 0
vn -1 0 0
vn -1 0 0
vn -1 0 0
vn -1 0 0
vn -1 0 0
vn -1 0 0
vn -1 0 0
vn -1 0 0
vn -1 0 0
vn -1 0 0
vn -1 0 0
vn 0 0 -1
vn 0 0 -1
vn 0 0 -1
vn 0 0 -1
vn -0.3276614 -0.9447952 0
vn -0.3276614 -0.9447952 0
vn -0.3276614 -0.9447952 0
vn -0.3276614 -0.9447952 0
vn -0.3276614 -0.9447952 0
vn -0.3276614 -0.9447952 0
vn -0.3276614 -0.9447952 0
vn -0.3276614 -0.9447952 0
vn 0.3276614 0.9447952 0
vn 0.3276614 0.9447952 0
vn 0.3276614 0.9447952 0
vn 0.3276614 0.9447952 0
vn 0.3276614 0.9447952 0
vn 0.3276614 0.9447952 0
vn 0.3276614 0.9447952 0
vn 0.3276614 0.9447952 0
vn 0 0 1
vn 0 0 1
vn 0 0 1
vn 0 0 1
vn 0 0 1
vn 0 0 1
vn 0 0 1
vn 1 0 0
vn 1 0 0
vn 1 0 0
vn 1 0 0
vn 0 1 0
vn 0 1 0
vn 0 1 0
vn 0 1 0
vn 0 1 0
vn 0 1 0
vn 0 1 0
vn 0 1 0
vn 0 1 0
vn 0 1 0
vn 0 1 0
vn 0 1 0
vn 0 -1 0
vn 0 -1 0
vn 0 -1 0
vn 0 -1 0
vn 0 -1 0
vn 0 -1 0
vn 0 -1 0
vn 0 -1 0
vn 0.720973 -0.6929632 0
vn 0.720973 -0.6929632 0
vn 0.720973 -0.6929632 0
vn 0.720973 -0.6929632 0
vn 0.720973 -0.6929632 0
vn 0.720973 -0.6929632 0
vn 0.720973 -0.6929632 0
vn 0.720973 -0.6929632 0
vn 0.720973 -0.6929632 0
vn 0.720973 -0.6929632 0
vn 0 0 -1
vn 0 0 -1
vn 0 0 -1
vn 0 0 -1
vn 0 0 1
vn 0 0 1
vn 0 0 1
vn 0 0 1
vn 0 0 1
vn 0 0 1
vn 0 0 1
vn 0 0 1
vn 0 0 1
vn 0 0 1
vn 0 0 1
vn 0 0 -1
vn 0 0 -1
vn 0 0 -1
vn 0 0 -1
vn 0 0 -1
vn 0 0 -1
vn 0 0 -1
vn 0 1 0
vn 0 1 0
vn 0 1 0
vn 0 1 0
vn 0 -1 0
vn 0 -1 0
vn 0 -1 0
vn 0 -1 0
vn -0.720973 0.6929632 0
vn -0.720973 0.6929632 0
vn -0.720973 0.6929632 0
vn -0.720973 0.6929632 0
vn -0.720973 0.6929632 0
vn -0.720973 0.6929632 0
vn -0.720973 0.6929632 0
vn -0.720973 0.6929632 0
vn 0 0 -1
vn 0 0 -1
vn 0 0 -1
vn 0 0 -1
vn 0 0 -1
vn 0 0 -1
vn 0 1 0
vn 0 1 0
vn 0 1 0
vn 0 1 0
vn 0 0 -1
vn 0 0 -1
vn 0 0 -1
vn 0 0 -1
vn 0 0 -1
vn 0 0 -1
vn 0 0 -1
vn 0 0 1
vn 0 0 1
vn 0 0 1
vn 0 0 1
vn 0 0 1
vn 0 0 1
vn 0 -1 0
vn 0 -1 0
vn 0 -1 0
vn 0 -1 0
vn -1 0 0
vn -1 0 0
vn -1 0 0
vn -1 0 0

vt 0.8540434 10.22643
vt 0.1071143 10.22643
vt 0.1666806 10.22975
vt 0.8098696 10.22975
vt 0.8098696 11.74988
vt 0.1666806 11.74988
vt 5.684342E-14 14.25591
vt 0.1071143 8.606616
vt 0.1666806 1.947269
vt 5.684342E-14 0
vt 1.037402 0
vt 0.8098696 1.947269
vt 0.8098696 3.467397
vt 0.8540434 8.606616
vt 1.037402 14.25591
vt 0.1666806 3.467397
vt 18.90748 14.25591
vt 18.90748 0
vt 16.98327 0
vt 16.98327 14.25591
vt -1.924213 0.8098696
vt -1.924213 0.1666806
vt -16.98327 0.1666806
vt -16.98327 0.8098696
vt -1.136868E-13 14.25591
vt -1.136868E-13 0
vt -0.1666806 11.74988
vt -1.037402 14.25591
vt -0.1071143 5.132437
vt -0.1071143 3.458233
vt -0.8098696 11.74988
vt -0.8098696 10.22975
vt -0.8540434 5.132437
vt -1.037402 0
vt -0.1666806 3.458233
vt -0.8098696 3.458233
vt -0.8540434 3.458233
vt -0.1666806 10.22975
vt -0.8098696 3.467397
vt -0.1666806 3.467397
vt -16.98327 14.25591
vt -16.98327 0
vt -18.90748 0
vt -18.90748 14.25591
vt -0.8098696 -14.88028
vt -0.8098696 -14.68247
vt -0.1666806 -14.68247
vt -0.1666806 -14.88028
vt -0.8540434 -14.88028
vt -0.1071143 1.002069
vt -0.8540434 1.002069
vt -0.1071143 -14.88028
vt 0.1071143 -14.36401
vt 0.1071143 1.47684
vt 0.1666806 1.47684
vt 0.1666806 1.192635
vt 0.8098696 1.192635
vt 0.8540434 -14.36401
vt 0.8540434 1.47684
vt 0.8098696 1.47684
vt 2.01691 10.32287
vt 2.285426 10.22975
vt 1.927404 10.22975
vt 16.98327 11.74988
vt 16.98327 10.22975
vt 1.924213 11.74988
vt 1.924213 10.22975
vt 1.037402 0
vt 0 0
vt 0 14.25591
vt 1.037402 14.25591
vt 16.98327 0.1666806
vt 1.924213 0.1666806
vt 1.924213 0.8098696
vt 16.98327 0.8098696
vt 16.99207 0.1666806
vt 16.98327 0.1666806
vt 16.98327 0.8098696
vt 16.99207 0.8098696
vt 16.74289 0.8098696
vt 16.74289 0.1666806
vt 1.924213 0.8098696
vt 1.924213 0.1666806
vt -2.285426 0.8098696
vt -1.927404 0.8098696
vt -1.927404 0.1666806
vt -2.285426 0.1666806
vt -16.98327 0.1666806
vt -16.98327 0.8098696
vt -1.924213 0.8098696
vt -1.924213 0.1666806
vt 0.1666806 14.26207
vt 0.1666806 14.27478
vt 0.8098696 14.27478
vt 0.8098696 14.26207
vt 0.8098696 14.18488
vt 0.8540434 14.26207
vt 0.8540434 14.18488
vt 0.1666806 14.18488
vt 0.1071143 14.26207
vt 0.1071143 14.18488
vt -3.064602E-14 14.25591
vt -3.064602E-14 0
vt -1.924213 0
vt -1.924213 14.25591
vt 16.98327 3.458233
vt 16.98327 1.947269
vt 16.92978 3.402583
vt 1.924213 3.467397
vt 1.924213 1.947269
vt 16.74289 3.467397
vt 16.98327 3.467397
vt 1.924213 14.25591
vt 1.924213 0
vt 0 0
vt 0 14.25591
vt -1.924213 3.467397
vt -1.924213 1.947269
vt -16.98327 1.947269
vt -16.92978 3.402583
vt -16.74289 3.467397
vt -16.98327 3.458233
vt -16.98327 3.467397
vt 18.90748 0
vt 16.98327 1.136868E-13
vt 16.98327 1.037402
vt 18.90748 1.037402
vt -1.924213 1.037402
vt 0 1.037402
vt 0 5.684342E-14
vt -1.924213 5.684342E-14
vt -0.8540434 8.840157
vt -0.8098696 8.840157
vt -0.8098696 8.710993
vt -0.8540434 8.706388
vt -0.1666806 8.710993
vt -0.1071143 8.706388
vt -0.1666806 8.840157
vt -0.1071143 8.840157
vt -1.924213 8.606616
vt -16.92978 3.402583
vt -16.98327 3.458233
vt -16.98327 5.132437
vt -2.01691 10.32287
vt -1.924213 10.22643
vt 1.924213 5.684342E-14
vt 0 5.684342E-14
vt 0 1.037402
vt 1.924213 1.037402
vt -2.01691 10.32287
vt -1.927404 10.22975
vt -2.285426 10.22975
vt -1.924213 11.74988
vt -1.924213 10.22975
vt -16.98327 10.22975
vt -16.98327 11.74988
vt 16.98327 3.458233
vt 16.92978 3.402583
vt 1.924213 8.606616
vt 16.98327 5.132437
vt 2.01691 10.32287
vt 1.924213 10.22643
vt -18.90748 1.037402
vt -16.98327 1.037402
vt -16.98327 1.136868E-13
vt -18.90748 0
vt -1.037402 14.25591
vt -5.684342E-14 14.25591
vt -5.684342E-14 0
vt -1.037402 0

usemtl _Color_C11_2
usemap _Color_C11_2
f 2/2/2 1/1/1 3/3/3
f 4/4/4 3/3/3 1/1/1
f 5/5/5 4/4/4 1/1/1
f 3/3/3 6/6/6 2/2/2
f 3/3/3 4/4/4 6/6/6
f 5/5/5 6/6/6 4/4/4
f 2/2/2 6/6/6 7/7/7
f 2/2/2 7/7/7 8/8/8
f 2/2/2 8/8/8 1/1/1
f 8/8/8 7/7/7 9/9/9
f 7/7/7 10/10/10 9/9/9
f 11/11/11 9/9/9 10/10/10
f 12/12/12 9/9/9 11/11/11
f 13/13/13 12/12/12 11/11/11
f 14/14/14 13/13/13 11/11/11
f 1/1/1 14/14/14 11/11/11
f 14/14/14 1/1/1 8/8/8
f 15/15/15 7/7/7 6/6/6
f 5/5/5 15/15/15 6/6/6
f 1/1/1 15/15/15 5/5/5
f 11/11/11 15/15/15 1/1/1
f 14/14/14 8/8/8 16/16/16
f 9/9/9 16/16/16 8/8/8
f 13/13/13 14/14/14 16/16/16
f 9/9/9 12/12/12 16/16/16
f 13/13/13 16/16/16 12/12/12
f 18/18/18 17/17/17 19/19/19
f 20/20/20 19/19/19 17/17/17
f 22/22/22 21/21/21 23/23/23
f 24/24/24 23/23/23 21/21/21
f 26/26/26 25/25/25 27/27/27
f 28/28/28 27/27/27 25/25/25
f 29/29/29 26/26/26 27/27/27
f 30/30/30 26/26/26 29/29/29
f 31/31/31 27/27/27 28/28/28
f 32/32/32 31/31/31 28/28/28
f 33/33/33 32/32/32 28/28/28
f 26/26/26 30/30/30 34/34/34
f 28/28/28 34/34/34 33/33/33
f 35/35/35 34/34/34 30/30/30
f 30/30/30 29/29/29 35/35/35
f 36/36/36 34/34/34 35/35/35
f 37/37/37 34/34/34 36/36/36
f 33/33/33 34/34/34 37/37/37
f 37/37/37 36/36/36 33/33/33
f 33/33/33 29/29/29 38/38/38
f 27/27/27 38/38/38 29/29/29
f 32/32/32 33/33/33 38/38/38
f 27/27/27 31/31/31 38/38/38
f 32/32/32 38/38/38 31/31/31
f 36/36/36 35/35/35 39/39/39
f 36/36/36 39/39/39 33/33/33
f 40/40/40 39/39/39 35/35/35
f 29/29/29 33/33/33 40/40/40
f 39/39/39 40/40/40 33/33/33
f 40/40/40 35/35/35 29/29/29
f 42/42/42 41/41/41 43/43/43
f 44/44/44 43/43/43 41/41/41
f 46/46/46 45/45/45 47/47/47
f 48/48/48 47/47/47 45/45/45
f 45/45/45 46/46/46 49/49/49
f 46/46/46 50/50/50 49/49/49
f 46/46/46 47/47/47 50/50/50
f 51/51/51 49/49/49 50/50/50
f 52/52/52 50/50/50 47/47/47
f 48/48/48 52/52/52 47/47/47
f 54/54/54 53/53/53 55/55/55
f 56/56/56 55/55/55 53/53/53
f 57/57/57 56/56/56 53/53/53
f 53/53/53 58/58/58 57/57/57
f 58/58/58 59/59/59 57/57/57
f 60/60/60 57/57/57 59/59/59
f 55/55/55 56/56/56 60/60/60
f 57/57/57 60/60/60 56/56/56
f 62/62/62 61/61/61 63/63/63
f 61/61/61 62/62/62 64/64/64
f 65/65/65 64/64/64 62/62/62
f 66/66/66 61/61/61 64/64/64
f 61/61/61 66/66/66 63/63/63
f 67/67/67 63/63/63 66/66/66
f 69/69/69 68/68/68 70/70/70
f 71/71/71 70/70/70 68/68/68
f 73/73/73 72/72/72 74/74/74
f 75/75/75 74/74/74 72/72/72
f 77/77/77 76/76/76 78/78/78
f 79/79/79 78/78/78 76/76/76
f 78/78/78 80/80/80 77/77/77
f 81/81/81 77/77/77 80/80/80
f 80/80/80 82/82/82 81/81/81
f 83/83/83 81/81/81 82/82/82
f 85/85/85 84/84/84 86/86/86
f 87/87/87 86/86/86 84/84/84
f 87/87/87 84/84/84 88/88/88
f 89/89/89 88/88/88 84/84/84
f 85/85/85 86/86/86 90/90/90
f 91/91/91 90/90/90 86/86/86
f 93/93/93 92/92/92 94/94/94
f 95/95/95 94/94/94 92/92/92
f 95/95/95 92/92/92 96/96/96
f 95/95/95 96/96/96 97/97/97
f 98/98/98 97/97/97 96/96/96
f 99/99/99 96/96/96 92/92/92
f 92/92/92 100/100/100 99/99/99
f 101/101/101 99/99/99 100/100/100
f 103/103/103 102/102/102 104/104/104
f 105/105/105 104/104/104 102/102/102
f 107/107/107 106/106/106 108/108/108
f 108/108/108 109/109/109 107/107/107
f 110/110/110 107/107/107 109/109/109
f 111/111/111 109/109/109 108/108/108
f 108/108/108 106/106/106 111/111/111
f 112/112/112 111/111/111 106/106/106
f 114/114/114 113/113/113 115/115/115
f 116/116/116 115/115/115 113/113/113
f 118/118/118 117/117/117 119/119/119
f 120/120/120 119/119/119 117/117/117
f 121/121/121 120/120/120 117/117/117
f 120/120/120 122/122/122 119/119/119
f 120/120/120 121/121/121 122/122/122
f 123/123/123 122/122/122 121/121/121
f 125/125/125 124/124/124 126/126/126
f 127/127/127 126/126/126 124/124/124
f 129/129/129 128/128/128 130/130/130
f 131/131/131 130/130/130 128/128/128
f 133/133/133 132/132/132 134/134/134
f 132/132/132 135/135/135 134/134/134
f 134/134/134 135/135/135 136/136/136
f 134/134/134 136/136/136 133/133/133
f 135/135/135 137/137/137 136/136/136
f 136/136/136 137/137/137 138/138/138
f 138/138/138 133/133/133 136/136/136
f 139/139/139 138/138/138 137/137/137
f 141/141/141 140/140/140 142/142/142
f 143/143/143 142/142/142 140/140/140
f 144/144/144 143/143/143 140/140/140
f 145/145/145 144/144/144 140/140/140
f 147/147/147 146/146/146 148/148/148
f 149/149/149 148/148/148 146/146/146
f 151/151/151 150/150/150 152/152/152
f 150/150/150 151/151/151 153/153/153
f 154/154/154 153/153/153 151/151/151
f 152/152/152 150/150/150 155/155/155
f 156/156/156 155/155/155 150/150/150
f 153/153/153 156/156/156 150/150/150
f 158/158/158 157/157/157 159/159/159
f 160/160/160 159/159/159 157/157/157
f 161/161/161 159/159/159 160/160/160
f 162/162/162 159/159/159 161/161/161
f 164/164/164 163/163/163 165/165/165
f 166/166/166 165/165/165 163/163/163
f 168/168/168 167/167/167 169/169/169
f 170/170/170 169/169/169 167/167/167
